<svg id="f8bf3776-1c96-4198-b986-3fe49f1c37fd" data-name="Layer 1" xmlns="http://www.w3.org/2000/svg" xmlns:xlink="http://www.w3.org/1999/xlink" viewBox="0 0 750.15 191.78"><defs><style>.b07c9b22-42a5-4c1e-98df-ffed81331ee2{fill:url(#a2857928-ca5e-4f31-b147-71feb0612cf3);}.b482acc7-9d86-464f-9167-a2f7961af024{fill:url(#a4fadd8b-012c-4d0a-8fa1-397c315071ca);}</style><linearGradient id="a2857928-ca5e-4f31-b147-71feb0612cf3" x1="729.3" y1="124.2" x2="695.99" y2="73.46" gradientUnits="userSpaceOnUse"><stop offset="0" stop-color="#d6001c"/><stop offset="0.15" stop-color="#e1431e"/><stop offset="0.32" stop-color="#ec8620"/><stop offset="0.47" stop-color="#f4b721"/><stop offset="0.57" stop-color="#f9d622"/><stop offset="0.63" stop-color="#fbe122"/><stop offset="0.99" stop-color="#3ccbda"/></linearGradient><linearGradient id="a4fadd8b-012c-4d0a-8fa1-397c315071ca" x1="619.67" y1="178.15" x2="719.64" y2="34.23" gradientUnits="userSpaceOnUse"><stop offset="0" stop-color="#bb29bb"/><stop offset="0.33" stop-color="#d6001c"/><stop offset="0.43" stop-color="#e1431e"/><stop offset="0.54" stop-color="#ec8620"/><stop offset="0.64" stop-color="#f4b721"/><stop offset="0.71" stop-color="#f9d622"/><stop offset="0.75" stop-color="#fbe122"/><stop offset="0.99" stop-color="#3ccbda"/></linearGradient></defs><path id="ee4cc958-a3f0-4100-b772-a43198e937a0" data-name="fullLogo" d="M55,124.06c-2,2-4.84,3.06-10.07,3.06H21.31c-5.13,0-8-.69-10.07-2.86-2.67-2.66-3.65-5.43-3.75-18h7.6c.2,9.68.69,11.46,1.88,12.64,1,1,2.27,1.48,5.52,1.48H43.72c3.26,0,4.64-.39,5.73-1.58,1.28-1.28,1.87-4,1.87-10.66,0-6.42-.29-8.2-1.77-9.68-1.09-1-2.37-1.48-6.12-1.78l-21.63-2c-5.43-.49-8.29-1.58-10.17-3.46-2.47-2.46-3.25-5.62-3.25-14.51,0-8.49,1-12.74,4-15.7,1.88-2,4.84-3.06,10-3.06H43.82c5.14,0,8.1.69,10.17,2.86,2.76,2.77,3.56,5.63,3.75,17.48H50c-.1-8.89-.59-10.86-1.78-12.14-1.08-1-2.37-1.49-5.53-1.49H23.58c-3.26,0-4.54.4-5.73,1.58-1.28,1.39-1.77,4.45-1.77,10.37,0,6.22.39,7.9,1.77,9.28C18.94,87,20.22,87.34,24,87.63l21.62,2c5.23.49,8.19,1.58,10.07,3.45,2.47,2.47,3.36,5.83,3.36,15S57.94,121.2,55,124.06Z"/><path id="e470c489-3774-4c4e-b848-950199d7d219" data-name="fullLogo" d="M136.24,96.91c-2.17,2.17-5.43,2.77-10.56,2.77H100.6v27.44H92.8V58h32.88c5.13,0,8.39.59,10.56,2.77,2.86,2.66,5,6.51,5,18.26C141.28,90.4,139.1,94.25,136.24,96.91ZM124,93c3.75,0,5.43-.39,6.61-1.48s2.77-3.65,2.77-12.64-1.48-11.45-2.77-12.63-2.86-1.49-6.61-1.49H100.6V93Z"/><path id="a11f6347-7f6e-4c7b-99ba-2ce8f0ba71c2" data-name="fullLogo" d="M218.3,127.12H172.68V58h45.91v6.71H180.48V87.93h32.68v6.61H180.48v25.87H218.3Z"/><path id="a01ef0d4-cfd1-49c5-872b-379ca74f2a4d" data-name="fullLogo" d="M296,124.36c-2.17,2-4.64,2.76-10.86,2.76H264.69c-6.22,0-8.68-.78-10.86-2.76-3.55-3.36-5.72-8.39-5.72-31.79s2.17-28.44,5.72-31.79c2.18-2,4.64-2.77,10.86-2.77h20.44c6.22,0,8.69.79,10.86,2.77,3.26,3.06,4.84,7.1,5.14,18.76h-7.7c-.3-9.39-1.39-12-2.77-13.33-1-.89-2.17-1.49-6.32-1.49H265.48c-4.14,0-5.33.6-6.32,1.49-1.57,1.58-3.15,5.13-3.15,26.36s1.58,24.78,3.15,26.36c1,.89,2.18,1.48,6.32,1.48h18.86c4.15.1,5.33-.59,6.32-1.48,1.38-1.38,2.47-3.75,2.87-14.42h7.7C300.73,117.65,299.25,121.3,296,124.36Z"/><path id="e4d0d692-f961-4e2b-add3-d7580324968f" data-name="fullLogo" d="M357.21,64.72v62.4h-7.8V64.72H326.9V58h52.82v6.71Z"/><path id="b521b71e-ff5b-43c8-848b-9bd17a3e3963" data-name="fullLogo" d="M447.26,99c-1.48-1.39-3.55-1.88-7.7-1.88h-23.1v30h-7.8V58h34.95c4.84,0,8,.79,10.17,2.86,2.67,2.67,4.34,6.22,4.34,16.3,0,11.94-3.35,15.4-10.26,16.88v.1c6.81,1.58,9.28,3.55,9.77,14.61.3,8.1.59,14.22,1.09,18.36H451A162.47,162.47,0,0,1,449.73,109C449.53,102.05,448.75,100.27,447.26,99Zm-5.72-8.4c3.55,0,5-.69,6-1.68,1.19-1.18,2.76-3.55,2.76-11.35s-1.48-10.27-2.66-11.45c-1-1-2.67-1.39-5.93-1.39H416.46V90.59Z"/><path id="ae0ff9e7-f183-4716-b3d6-334cbab28f6a" data-name="fullLogo" d="M545.61,99c0,16.58-1.48,21-4.94,24.58-2.66,2.57-6.51,3.55-14.31,3.55H512c-7.7,0-11.45-1-14-3.55-3.46-3.46-4.94-7.8-4.94-24.58V58h7.8v42.36c0,13.52,1.19,16.29,3,18.07,1.19,1.18,3,1.87,9.68,1.87h12c6.61,0,8.29-.59,9.57-1.87,1.78-1.88,2.87-4.35,2.87-18.07V58h7.7Z"/><path id="ae302e5e-ce47-4c76-9633-9d014ddc8a2e" data-name="fullLogo" d="M650.37,127.12h-7.9V65.32h-1.18l-19.75,59.14c-.69,2.27-1.08,2.66-3.26,2.66h-4.64c-2.17,0-2.56-.39-3.26-2.66L590.64,64.72h-1.19v62.4h-7.6V58H593.7c2.27,0,3,.69,3.55,2.77l18.47,56.67h1.18l18.37-56.67c.59-2.08,1.28-2.77,3.55-2.77h11.55Z"/><path id="f020f641-a68e-437d-b28e-881786966989" data-name="fullLogo" class="b07c9b22-42a5-4c1e-98df-ffed81331ee2" d="M708.24,98.2,680.2,58h9.08l18.86,27.55,28.73,41.56h-8.69Z"/><path id="bf1873c3-dee6-4432-91c3-9d1864db7974" data-name="fullLogo" class="b482acc7-9d86-464f-9167-a2f7961af024" d="M689.77,28.49a.07.07,0,0,1,0-.12c8.34-9.16,20.33-15.21,22.56-16.23,8.28-4,14.67-4.45,17.58-4.34a16.51,16.51,0,0,1,4.49.76,14.6,14.6,0,0,1,4.36,2.29,15.22,15.22,0,0,1,4.92,8,26.17,26.17,0,0,1,.75,8.08,41.94,41.94,0,0,1-1,7.44,69.38,69.38,0,0,1-1.88,7A138.06,138.06,0,0,1,729.69,67c-2.3,4-4.75,8-7.28,11.89s-5.12,7.72-7.78,11.51-5.39,7.51-8.15,11.21-5.6,7.34-8.47,11-5.76,7.22-8.77,10.72-6,7.06-9.08,10.48-6.21,6.87-9.45,10.19-6.52,6.62-10,9.78A137.41,137.41,0,0,1,638.41,171a71.57,71.57,0,0,1-6.44,3.41,42,42,0,0,1-7.07,2.67,26.06,26.06,0,0,1-8.13,1.08,15.59,15.59,0,0,1-9-3.09,14.64,14.64,0,0,1-3.28-3.82,17.06,17.06,0,0,1-1.78-4.29,27.48,27.48,0,0,1-.79-8.17l8.87.31h0a18.65,18.65,0,0,0,.54,5.49,6.59,6.59,0,0,0,2.06,3.43c1.67,1.46,5.42,1.68,9.3.59a54,54,0,0,0,11.76-4.72c7.79-4.07,14.21-10.28,21.36-15.83,13.92-12.87,25.23-26,36.68-40.27s21.88-28.41,31.16-44.47c3.85-8.19,8.31-15.58,10.57-24.1a54,54,0,0,0,2-12.59c.19-4.06-.83-7.76-2.76-9.18-1.8-1.58-4.62-2.36-9.69-1.37-9.72,1.74-18.45,8.72-22.64,12.56Z"/></svg>