<svg id="bd0b8069-b5ef-40ed-9458-5a3781194c1f" data-name="Layer 1" xmlns="http://www.w3.org/2000/svg" xmlns:xlink="http://www.w3.org/1999/xlink" viewBox="0 0 750.15 191.78"><defs><style>.a803b85f-585b-4358-8f92-9c537b0f39d2{fill:#fff;}.f52ffcb9-5757-4578-8da2-df600eb55b7e{fill:url(#ab7d38fa-83fe-4940-a9f2-2a4af08a20d1);}.b7b4ca06-7aee-4f18-a9b2-bfd650e06f32{fill:url(#fb99af52-12ed-4375-a169-87dc1f7ba5a1);}</style><linearGradient id="ab7d38fa-83fe-4940-a9f2-2a4af08a20d1" x1="729.3" y1="124.2" x2="695.99" y2="73.46" gradientUnits="userSpaceOnUse"><stop offset="0" stop-color="#d6001c"/><stop offset="0.15" stop-color="#e1431e"/><stop offset="0.32" stop-color="#ec8620"/><stop offset="0.47" stop-color="#f4b721"/><stop offset="0.57" stop-color="#f9d622"/><stop offset="0.63" stop-color="#fbe122"/><stop offset="0.99" stop-color="#3ccbda"/></linearGradient><linearGradient id="fb99af52-12ed-4375-a169-87dc1f7ba5a1" x1="619.67" y1="178.15" x2="719.64" y2="34.23" gradientUnits="userSpaceOnUse"><stop offset="0" stop-color="#bb29bb"/><stop offset="0.33" stop-color="#d6001c"/><stop offset="0.43" stop-color="#e1431e"/><stop offset="0.54" stop-color="#ec8620"/><stop offset="0.64" stop-color="#f4b721"/><stop offset="0.71" stop-color="#f9d622"/><stop offset="0.75" stop-color="#fbe122"/><stop offset="0.99" stop-color="#3ccbda"/></linearGradient></defs><path id="a9313ed1-4459-4441-b443-0ba9d85a702d" data-name="fullLogo" class="a803b85f-585b-4358-8f92-9c537b0f39d2" d="M55,124.06c-2,2-4.84,3.06-10.07,3.06H21.31c-5.13,0-8-.69-10.07-2.86-2.67-2.66-3.65-5.43-3.75-18h7.6c.2,9.68.69,11.46,1.88,12.64,1,1,2.27,1.48,5.52,1.48H43.72c3.26,0,4.64-.39,5.73-1.58,1.28-1.28,1.87-4,1.87-10.66,0-6.42-.29-8.2-1.77-9.68-1.09-1-2.37-1.48-6.12-1.78l-21.63-2c-5.43-.49-8.29-1.58-10.17-3.46-2.47-2.46-3.25-5.62-3.25-14.51,0-8.49,1-12.74,4-15.7,1.88-2,4.84-3.06,10-3.06H43.82c5.14,0,8.1.69,10.17,2.86,2.76,2.77,3.56,5.63,3.75,17.48H50c-.1-8.89-.59-10.86-1.78-12.14-1.08-1-2.37-1.49-5.53-1.49H23.58c-3.26,0-4.54.4-5.73,1.58-1.28,1.39-1.77,4.45-1.77,10.37,0,6.22.39,7.9,1.77,9.28C18.94,87,20.22,87.34,24,87.63l21.62,2c5.23.49,8.19,1.58,10.07,3.45,2.47,2.47,3.36,5.83,3.36,15S57.94,121.2,55,124.06Z"/><path id="e283d3ab-1668-4ff4-a4e4-666aefe289fa" data-name="fullLogo" class="a803b85f-585b-4358-8f92-9c537b0f39d2" d="M136.24,96.91c-2.17,2.17-5.43,2.77-10.56,2.77H100.6v27.44H92.8V58h32.88c5.13,0,8.39.59,10.56,2.77,2.86,2.66,5,6.51,5,18.26C141.28,90.4,139.1,94.25,136.24,96.91ZM124,93c3.75,0,5.43-.39,6.61-1.48s2.77-3.65,2.77-12.64-1.48-11.45-2.77-12.63-2.86-1.49-6.61-1.49H100.6V93Z"/><path id="e0866cc6-bf8d-40e5-aa43-237efb6160f0" data-name="fullLogo" class="a803b85f-585b-4358-8f92-9c537b0f39d2" d="M218.3,127.12H172.68V58h45.91v6.71H180.48V87.93h32.68v6.61H180.48v25.87H218.3Z"/><path id="f5fa3841-f9fd-4aad-9345-8edfbccb66b3" data-name="fullLogo" class="a803b85f-585b-4358-8f92-9c537b0f39d2" d="M296,124.36c-2.17,2-4.64,2.76-10.86,2.76H264.69c-6.22,0-8.68-.78-10.86-2.76-3.55-3.36-5.72-8.39-5.72-31.79s2.17-28.44,5.72-31.79c2.18-2,4.64-2.77,10.86-2.77h20.44c6.22,0,8.69.79,10.86,2.77,3.26,3.06,4.84,7.1,5.14,18.76h-7.7c-.3-9.39-1.39-12-2.77-13.33-1-.89-2.17-1.49-6.32-1.49H265.48c-4.14,0-5.33.6-6.32,1.49-1.57,1.58-3.15,5.13-3.15,26.36s1.58,24.78,3.15,26.36c1,.89,2.18,1.48,6.32,1.48h18.86c4.15.1,5.33-.59,6.32-1.48,1.38-1.38,2.47-3.75,2.87-14.42h7.7C300.73,117.65,299.25,121.3,296,124.36Z"/><path id="e0f1f8b1-f16e-4762-9eec-0831ac2e95bd" data-name="fullLogo" class="a803b85f-585b-4358-8f92-9c537b0f39d2" d="M357.21,64.72v62.4h-7.8V64.72H326.9V58h52.82v6.71Z"/><path id="b135725c-0dec-4464-8c64-a812ca7cf796" data-name="fullLogo" class="a803b85f-585b-4358-8f92-9c537b0f39d2" d="M447.26,99c-1.48-1.39-3.55-1.88-7.7-1.88h-23.1v30h-7.8V58h34.95c4.84,0,8,.79,10.17,2.86,2.67,2.67,4.34,6.22,4.34,16.3,0,11.94-3.35,15.4-10.26,16.88v.1c6.81,1.58,9.28,3.55,9.77,14.61.3,8.1.59,14.22,1.09,18.36H451A162.47,162.47,0,0,1,449.73,109C449.53,102.05,448.75,100.27,447.26,99Zm-5.72-8.4c3.55,0,5-.69,6-1.68,1.19-1.18,2.76-3.55,2.76-11.35s-1.48-10.27-2.66-11.45c-1-1-2.67-1.39-5.93-1.39H416.46V90.59Z"/><path id="bb78a142-7472-4aee-9e69-b8a79ca3e943" data-name="fullLogo" class="a803b85f-585b-4358-8f92-9c537b0f39d2" d="M545.61,99c0,16.58-1.48,21-4.94,24.58-2.66,2.57-6.51,3.55-14.31,3.55H512c-7.7,0-11.45-1-14-3.55-3.46-3.46-4.94-7.8-4.94-24.58V58h7.8v42.36c0,13.52,1.19,16.29,3,18.07,1.19,1.18,3,1.87,9.68,1.87h12c6.61,0,8.29-.59,9.57-1.87,1.78-1.88,2.87-4.35,2.87-18.07V58h7.7Z"/><path id="b472d2c2-e8cd-435c-b82a-d7812c966bed" data-name="fullLogo" class="a803b85f-585b-4358-8f92-9c537b0f39d2" d="M650.37,127.12h-7.9V65.32h-1.18l-19.75,59.14c-.69,2.27-1.08,2.66-3.26,2.66h-4.64c-2.17,0-2.56-.39-3.26-2.66L590.64,64.72h-1.19v62.4h-7.6V58H593.7c2.27,0,3,.69,3.55,2.77l18.47,56.67h1.18l18.37-56.67c.59-2.08,1.28-2.77,3.55-2.77h11.55Z"/><path id="b8b6a3e2-9e90-4c00-b011-3491e1993e1e" data-name="fullLogo" class="f52ffcb9-5757-4578-8da2-df600eb55b7e" d="M708.24,98.2,680.2,58h9.08l18.86,27.55,28.73,41.56h-8.69Z"/><path id="f84dd905-4b3c-480a-871e-bb8d4277024c" data-name="fullLogo" class="b7b4ca06-7aee-4f18-a9b2-bfd650e06f32" d="M689.77,28.49a.07.07,0,0,1,0-.12c8.34-9.16,20.33-15.21,22.56-16.23,8.28-4,14.67-4.45,17.58-4.34a16.51,16.51,0,0,1,4.49.76,14.6,14.6,0,0,1,4.36,2.29,15.22,15.22,0,0,1,4.92,8,26.17,26.17,0,0,1,.75,8.08,41.94,41.94,0,0,1-1,7.44,69.38,69.38,0,0,1-1.88,7A138.06,138.06,0,0,1,729.69,67c-2.3,4-4.75,8-7.28,11.89s-5.12,7.72-7.78,11.51-5.39,7.51-8.15,11.21-5.6,7.34-8.47,11-5.76,7.22-8.77,10.72-6,7.06-9.08,10.48-6.21,6.87-9.45,10.19-6.52,6.62-10,9.78A137.41,137.41,0,0,1,638.41,171a71.57,71.57,0,0,1-6.44,3.41,42,42,0,0,1-7.07,2.67,26.06,26.06,0,0,1-8.13,1.08,15.59,15.59,0,0,1-9-3.09,14.64,14.64,0,0,1-3.28-3.82,17.06,17.06,0,0,1-1.78-4.29,27.48,27.48,0,0,1-.79-8.17l8.87.31h0a18.65,18.65,0,0,0,.54,5.49,6.59,6.59,0,0,0,2.06,3.43c1.67,1.46,5.42,1.68,9.3.59a54,54,0,0,0,11.76-4.72c7.79-4.07,14.21-10.28,21.36-15.83,13.92-12.87,25.23-26,36.68-40.27s21.88-28.41,31.16-44.47c3.85-8.19,8.31-15.58,10.57-24.1a54,54,0,0,0,2-12.59c.19-4.06-.83-7.76-2.76-9.18-1.8-1.58-4.62-2.36-9.69-1.37-9.72,1.74-18.45,8.72-22.64,12.56Z"/><path class="a803b85f-585b-4358-8f92-9c537b0f39d2" d="M8.05,178.47v-2.56h2L15,160.41c.24-.75.49-.91,1.3-.91h2.26c.81,0,1.06.16,1.3.91l4.89,15.5h2.05v2.56H19v-2.56h2.59l-1-3.38-6.56,0-1,3.35h2.59v2.56Zm6.64-8.36h5.13l-2.35-8h-.4Z"/><path class="a803b85f-585b-4358-8f92-9c537b0f39d2" d="M34.75,165.65c1.84-1.51,2.43-1.78,3.65-1.78h1.86a3.14,3.14,0,0,1,2.48.84c.57.56.87,1.27.87,3.29v8.07h2.18v2.4h-7v-2.4h2.13v-7.91a1.89,1.89,0,0,0-.38-1.4c-.29-.3-.56-.41-1.51-.41H37.48a5.87,5.87,0,0,0-2.73.81v8.91h2.14v2.4H29.76v-2.4H32v-9.72H29.76V163.9h5Z"/><path class="a803b85f-585b-4358-8f92-9c537b0f39d2" d="M71.31,162.14H68.77v-2.56h7.75v2.56H74v16.33H70.58c-.78,0-.94-.16-1.27-.89L63,163.06h-.41v12.85h2.54v2.56h-7.8v-2.56h2.53V162.14H57.33v-2.56h6.26c.78,0,.94.16,1.27.89l6,13.87h.41Z"/><path class="a803b85f-585b-4358-8f92-9c537b0f39d2" d="M93.5,177.61a3.8,3.8,0,0,1-2.91.86H84.51c-1.48,0-2.34-.19-2.94-.78-.78-.78-1-1.7-1.08-5.16h3c.05,2.35.13,2.79.35,3s.38.24,1.19.24h5c.78,0,1,0,1.24-.24s.29-.92.29-2.51c0-1.38,0-1.75-.32-2.05s-.49-.27-1.24-.35l-5.67-.54a4.21,4.21,0,0,1-2.75-.92c-.76-.76-.89-1.75-.89-4.24s.24-3.61,1.1-4.48a3.84,3.84,0,0,1,2.86-.86h5.56c1.49,0,2.35.19,2.95.78.78.78,1,1.65,1.08,5h-3c-.05-2.21-.14-2.64-.35-2.86s-.38-.24-1.19-.24H85.24c-.75,0-1,0-1.21.24s-.3.95-.3,2.38,0,1.72.33,2,.48.24,1.24.32l5.67.54a4.35,4.35,0,0,1,2.7.89c.72.73.94,1.76.94,4.32S94.37,176.75,93.5,177.61Z"/><path class="a803b85f-585b-4358-8f92-9c537b0f39d2" d="M99,162.14v-2.56h14.58v5.69h-2.83v-3.13h-6.32v5.54h4.86v2.48h-4.86v5.75h2.73v2.56H99v-2.56h2.54V162.14Z"/><path class="a803b85f-585b-4358-8f92-9c537b0f39d2" d="M139.35,177.61a3.82,3.82,0,0,1-2.92.86h-6.07c-1.48,0-2.35-.19-2.94-.78-.78-.78-1-1.7-1.08-5.16h3c0,2.35.13,2.79.35,3s.37.24,1.18.24h5c.78,0,1,0,1.24-.24s.3-.92.3-2.51c0-1.38,0-1.75-.32-2.05s-.49-.27-1.25-.35l-5.66-.54a4.27,4.27,0,0,1-2.76-.92c-.75-.76-.89-1.75-.89-4.24s.24-3.61,1.11-4.48a3.84,3.84,0,0,1,2.86-.86h5.56c1.48,0,2.35.19,2.94.78.79.78,1,1.65,1.08,5h-3c-.06-2.21-.14-2.64-.36-2.86s-.37-.24-1.18-.24h-4.51c-.76,0-1,0-1.22.24s-.29.95-.29,2.38,0,1.72.32,2,.49.24,1.24.32l5.67.54a4.32,4.32,0,0,1,2.7.89c.73.73,1,1.76,1,4.32S140.21,176.75,139.35,177.61Z"/><path class="a803b85f-585b-4358-8f92-9c537b0f39d2" d="M157.92,177.61a3.74,3.74,0,0,1-3,.89h-1.79c-1.21,0-1.8-.27-3.64-1.75v3.37h2.29v2.4h-7.28v-2.4h2.26V166.35h-2.26V163.9h5v1.75c1.84-1.51,2.43-1.78,3.64-1.78H155a3.74,3.74,0,0,1,3,.89c.79.78,1.17,1.89,1.17,6.43S158.71,176.83,157.92,177.61Zm-8.39-10.45v8a5.78,5.78,0,0,0,2.83.87h1.92c.89,0,1.24-.11,1.49-.35.4-.41.51-1.22.51-4.48s-.11-4.08-.51-4.49c-.25-.24-.6-.35-1.49-.35h-2A5.87,5.87,0,0,0,149.53,167.16Z"/><path class="a803b85f-585b-4358-8f92-9c537b0f39d2" d="M166.7,172.21c0,2.84.19,3.32.41,3.54s.4.27,1.24.27h3.26c.63,0,.81-.11,1-.27s.24-.52.29-1.81h2.73c-.05,2.27-.27,3.08-1,3.8a3,3,0,0,1-2.37.73H168a3.82,3.82,0,0,1-2.89-.83c-.95-.95-1.22-2.08-1.22-6.45s.27-5.51,1.22-6.46a3.82,3.82,0,0,1,2.89-.83h3.48a4,4,0,0,1,2.89.81c.94.94,1.21,2.18,1.21,6.45v.73c0,.21-.08.32-.32.32Zm0-2.24h6.13c0-2.46-.16-3.1-.41-3.35s-.4-.27-1.24-.27h-2.83c-.84,0-1,.08-1.27.3S166.73,167.41,166.7,170Z"/><path class="a803b85f-585b-4358-8f92-9c537b0f39d2" d="M181.58,177.64c-1-.95-1.22-2.08-1.22-6.45s.27-5.51,1.22-6.46a3.83,3.83,0,0,1,2.89-.83h4.1a3,3,0,0,1,2.38.73c.7.7,1,1.67,1,4.4h-2.73c-.05-1.89-.16-2.22-.32-2.38s-.38-.24-1-.24h-3.05c-.84,0-1,.08-1.24.27s-.41.78-.41,4.51.14,4.23.41,4.5.4.27,1.24.27h3.08c.59,0,.86-.05,1-.24s.3-.73.3-2.56H192c0,3-.27,3.86-1,4.58a3.08,3.08,0,0,1-2.37.73h-4.13A3.83,3.83,0,0,1,181.58,177.64Z"/><path class="a803b85f-585b-4358-8f92-9c537b0f39d2" d="M204.07,177.88l-1.78.48a7.34,7.34,0,0,1-1.78.22,2.75,2.75,0,0,1-2.14-.67,2.93,2.93,0,0,1-.62-2.27v-9.29h-2.13V163.9h2.13v-3.62h2.73v3.62h3.62v2.45h-3.62v8.59c0,.67.05.86.19,1s.38.13,1.05.13h2.35Z"/><path class="a803b85f-585b-4358-8f92-9c537b0f39d2" d="M215,176.07v2.4h-7.29v-2.4h2.27v-9.72h-2.27V163.9h5V166c1.43-1.51,2.21-2.16,3.37-2.16h1.46v2.89h-1.78a7.78,7.78,0,0,0-3.05.54v8.77Z"/><path class="a803b85f-585b-4358-8f92-9c537b0f39d2" d="M230.82,176.75c-1.86,1.48-2.45,1.75-3.64,1.75h-1.86a3.13,3.13,0,0,1-2.48-.84c-.57-.56-.87-1.26-.87-3.29v-8h-2.19V163.9h4.92v10.31a1.89,1.89,0,0,0,.38,1.4c.29.3.56.41,1.51.41h1.51a5.67,5.67,0,0,0,2.72-.81v-8.86h-2.4V163.9h5.13v12.17h2.27v2.4h-5Z"/><path class="a803b85f-585b-4358-8f92-9c537b0f39d2" d="M243.87,165.65c1.83-1.51,2.43-1.78,3.64-1.78h1.76a3.16,3.16,0,0,1,2.48.84,2.66,2.66,0,0,1,.65,1.1c2-1.64,2.62-1.94,3.86-1.94H258a3.14,3.14,0,0,1,2.48.84c.57.56.87,1.27.87,3.29v8.07h2.18v2.4h-7v-2.4h2.1v-7.91a1.89,1.89,0,0,0-.38-1.4c-.29-.3-.56-.41-1.51-.41h-1.4a5.94,5.94,0,0,0-2.75.81c0,.27,0,.54,0,.84v8.07h2.11v2.4h-6.94v-2.4h2.11v-7.91a1.89,1.89,0,0,0-.38-1.4c-.3-.3-.57-.41-1.51-.41h-1.41a5.84,5.84,0,0,0-2.72.81v8.91H246v2.4h-7.1v-2.4h2.27v-9.72h-2.27V163.9h5Z"/><path class="a803b85f-585b-4358-8f92-9c537b0f39d2" d="M283.42,175.91v2.56h-8.18v-2.56h2.65V162.14h-2.65v-2.56h8.18v2.56h-2.64v13.77Z"/><path class="a803b85f-585b-4358-8f92-9c537b0f39d2" d="M292.09,165.65c1.83-1.51,2.43-1.78,3.64-1.78h1.87a3.16,3.16,0,0,1,2.48.84c.57.56.86,1.27.86,3.29v8.07h2.19v2.4h-7.05v-2.4h2.14v-7.91a1.89,1.89,0,0,0-.38-1.4c-.3-.3-.57-.41-1.51-.41h-1.51a5.84,5.84,0,0,0-2.73.81v8.91h2.13v2.4h-7.13v-2.4h2.27v-9.72h-2.27V163.9h5Z"/><path class="a803b85f-585b-4358-8f92-9c537b0f39d2" d="M311,165.65c1.83-1.51,2.42-1.78,3.64-1.78h1.86a3.17,3.17,0,0,1,2.49.84c.56.56.86,1.27.86,3.29v8.07h2.19v2.4H315v-2.4h2.13v-7.91a1.89,1.89,0,0,0-.38-1.4c-.29-.3-.56-.41-1.51-.41h-1.51a5.84,5.84,0,0,0-2.72.81v8.91h2.13v2.4H306v-2.4h2.27v-9.72H306V163.9h5Z"/><path class="a803b85f-585b-4358-8f92-9c537b0f39d2" d="M326.78,177.64c-.94-.95-1.21-2.08-1.21-6.45s.27-5.51,1.21-6.46a3.85,3.85,0,0,1,2.89-.83h4.16a3.85,3.85,0,0,1,2.89.83c.94,1,1.21,2.08,1.21,6.46s-.27,5.5-1.21,6.45a3.85,3.85,0,0,1-2.89.83h-4.16A3.85,3.85,0,0,1,326.78,177.64Zm2-1.95c.19.19.41.27,1.24.27h3.46c.84,0,1-.08,1.24-.27s.4-.78.4-4.5-.13-4.24-.4-4.51-.4-.27-1.24-.27H330c-.83,0-1,.08-1.24.27s-.4.78-.4,4.51S328.51,175.42,328.78,175.69Z"/><path class="a803b85f-585b-4358-8f92-9c537b0f39d2" d="M341.42,166.35V163.9h6.8v2.45h-2l3.21,9.15h.3l3.21-9.15h-2V163.9h6.56v2.45h-1.81l-4.31,11.48a.88.88,0,0,1-1,.7h-1.78a.87.87,0,0,1-1-.7l-4.32-11.48Z"/><path class="a803b85f-585b-4358-8f92-9c537b0f39d2" d="M369.31,166.57c-.19-.19-.49-.24-1.27-.24h-2.59c-.68,0-1,0-1.16.24s-.27.7-.33,1.81h-2.75c.05-2.32.3-3.11.86-3.67a3,3,0,0,1,2.43-.81h4.16c1.65,0,2.35.29,2.83.78.68.68.84,1.38.84,4v7.42h2.19v2.4h-4.89v-1.75c-1.89,1.51-2.48,1.78-3.67,1.78h-1.89a3.28,3.28,0,0,1-2.62-.76c-.51-.51-.86-1.4-.86-3.23s.32-2.92.89-3.49,1.67-1.05,4.75-1.05a12.46,12.46,0,0,1,3.4.41v-1.52C369.63,167.16,369.52,166.79,369.31,166.57Zm.32,8.64v-3.13h-3.45c-1.84,0-2.22.13-2.46.37s-.35.65-.35,1.6.05,1.62.27,1.83.48.22,1.13.22h1.68A6,6,0,0,0,369.63,175.21Z"/><path class="a803b85f-585b-4358-8f92-9c537b0f39d2" d="M385.43,177.88l-1.78.48a7.36,7.36,0,0,1-1.79.22,2.72,2.72,0,0,1-2.13-.67,2.93,2.93,0,0,1-.62-2.27v-9.29H377V163.9h2.13v-3.62h2.73v3.62h3.61v2.45h-3.61v8.59c0,.67.05.86.19,1s.37.13,1.05.13h2.35Z"/><path class="a803b85f-585b-4358-8f92-9c537b0f39d2" d="M389.24,178.47v-2.4h2.37v-9.72h-2.37V163.9h5.1v12.17h2.18v2.4ZM391.31,159h3.11v3h-3.11Z"/><path class="a803b85f-585b-4358-8f92-9c537b0f39d2" d="M401.55,177.64c-.95-.95-1.22-2.08-1.22-6.45s.27-5.51,1.22-6.46a3.83,3.83,0,0,1,2.89-.83h4.15a3.83,3.83,0,0,1,2.89.83c.95,1,1.22,2.08,1.22,6.46s-.27,5.5-1.22,6.45a3.83,3.83,0,0,1-2.89.83h-4.15A3.83,3.83,0,0,1,401.55,177.64Zm2-1.95c.19.19.41.27,1.25.27h3.45c.84,0,1.05-.08,1.24-.27s.41-.78.41-4.5-.14-4.24-.41-4.51-.4-.27-1.24-.27h-3.45c-.84,0-1.06.08-1.25.27s-.4.78-.4,4.51S403.28,175.42,403.54,175.69Z"/><path class="a803b85f-585b-4358-8f92-9c537b0f39d2" d="M421.9,165.65c1.84-1.51,2.43-1.78,3.65-1.78h1.86a3.14,3.14,0,0,1,2.48.84c.57.56.87,1.27.87,3.29v8.07h2.18v2.4h-7v-2.4H428v-7.91a1.89,1.89,0,0,0-.38-1.4c-.29-.3-.56-.41-1.51-.41h-1.51a5.87,5.87,0,0,0-2.73.81v8.91H424v2.4h-7.13v-2.4h2.27v-9.72h-2.27V163.9h5Z"/><path class="a803b85f-585b-4358-8f92-9c537b0f39d2" d="M449.5,178.47c-1.62,0-2.24-.19-2.81-.75-.94-.95-1.29-2.32-1.29-8.69s.35-7.75,1.29-8.7c.57-.56,1.19-.75,2.81-.75h5.94c1.53,0,2.4.21,2.88.7.87.86,1.08,1.81,1.14,5.51h-2.94c0-2.41-.14-3-.35-3.27s-.38-.24-1.19-.24h-4.86c-.84,0-1,.05-1.22.24s-.37,1-.37,6.51.1,6.23.37,6.5.38.24,1.22.24H455c.75,0,1-.08,1.19-.27s.27-.7.35-3.53h3c-.06,3.86-.25,4.86-1.17,5.77a4.11,4.11,0,0,1-2.91.73Z"/><path class="a803b85f-585b-4358-8f92-9c537b0f39d2" d="M467.21,172.21c0,2.84.19,3.32.4,3.54s.41.27,1.25.27h3.26c.62,0,.81-.11,1-.27s.25-.52.3-1.81h2.73c-.06,2.27-.27,3.08-1,3.8a3,3,0,0,1-2.38.73h-4.21a3.85,3.85,0,0,1-2.89-.83c-.94-.95-1.21-2.08-1.21-6.45s.27-5.51,1.21-6.46a3.85,3.85,0,0,1,2.89-.83H472a4,4,0,0,1,2.89.81c1,.94,1.22,2.18,1.22,6.45v.73c0,.21-.08.32-.33.32Zm0-2.24h6.13c0-2.46-.16-3.1-.41-3.35s-.4-.27-1.24-.27h-2.83c-.84,0-1.06.08-1.27.3S467.24,167.41,467.21,170Z"/><path class="a803b85f-585b-4358-8f92-9c537b0f39d2" d="M485.25,165.65c1.83-1.51,2.42-1.78,3.64-1.78h1.86a3.17,3.17,0,0,1,2.49.84c.56.56.86,1.27.86,3.29v8.07h2.19v2.4h-7.05v-2.4h2.13v-7.91a1.89,1.89,0,0,0-.38-1.4c-.29-.3-.56-.41-1.51-.41H488a5.84,5.84,0,0,0-2.72.81v8.91h2.13v2.4h-7.13v-2.4h2.27v-9.72h-2.27V163.9h5Z"/><path class="a803b85f-585b-4358-8f92-9c537b0f39d2" d="M507.2,177.88l-1.79.48a7.27,7.27,0,0,1-1.78.22,2.72,2.72,0,0,1-2.13-.67,2.89,2.89,0,0,1-.62-2.27v-9.29h-2.13V163.9h2.13v-3.62h2.73v3.62h3.61v2.45h-3.61v8.59c0,.67.05.86.18,1s.38.13,1.06.13h2.35Z"/><path class="a803b85f-585b-4358-8f92-9c537b0f39d2" d="M514.06,172.21c0,2.84.18,3.32.4,3.54s.4.27,1.24.27H519c.62,0,.81-.11,1-.27s.24-.52.3-1.81H523c-.05,2.27-.27,3.08-1,3.8a3,3,0,0,1-2.37.73h-4.21a3.83,3.83,0,0,1-2.89-.83c-.94-.95-1.21-2.08-1.21-6.45s.27-5.51,1.21-6.46a3.83,3.83,0,0,1,2.89-.83h3.48a4,4,0,0,1,2.89.81c.94.94,1.21,2.18,1.21,6.45v.73c0,.21-.08.32-.32.32Zm0-2.24h6.12c0-2.46-.16-3.1-.4-3.35s-.41-.27-1.24-.27H515.7c-.84,0-1.05.08-1.27.3S514.08,167.41,514.06,170Z"/><path class="a803b85f-585b-4358-8f92-9c537b0f39d2" d="M534.38,176.07v2.4H527.1v-2.4h2.26v-9.72H527.1V163.9h5V166c1.43-1.51,2.21-2.16,3.38-2.16h1.45v2.89h-1.78a7.78,7.78,0,0,0-3,.54v8.77Z"/></svg>